<svg width="24" height="24" viewBox="0 0 24 24" fill="none" xmlns="http://www.w3.org/2000/svg">
<path d="M15 18C14.732 18 14.4983 17.9003 14.299 17.701C14.0997 17.5017 14 17.268 14 17V7C14 6.732 14.0997 6.49833 14.299 6.299C14.4983 6.09967 14.732 6 15 6H16.5C16.768 6 17.0017 6.09967 17.201 6.299C17.4003 6.49833 17.5 6.732 17.5 7V17C17.5 17.268 17.4003 17.5017 17.201 17.701C17.0017 17.9003 16.768 18 16.5 18H15ZM7.5 18C7.232 18 6.99833 17.9003 6.799 17.701C6.59967 17.5017 6.5 17.268 6.5 17V7C6.5 6.732 6.59967 6.49833 6.799 6.299C6.99833 6.09967 7.232 6 7.5 6H9C9.268 6 9.50167 6.09967 9.701 6.299C9.90033 6.49833 10 6.732 10 7V17C10 17.268 9.90033 17.5017 9.701 17.701C9.50167 17.9003 9.268 18 9 18H7.5Z" fill="white"/>
</svg>
