<svg width="24" height="24" viewBox="0 0 24 24" fill="none" xmlns="http://www.w3.org/2000/svg">
<path fill-rule="evenodd" clip-rule="evenodd" d="M17 6C17 5.73478 16.8946 5.48043 16.7071 5.29289C16.5196 5.10536 16.2652 5 16 5C15.7348 5 15.4804 5.10536 15.2929 5.29289C15.1054 5.48043 15 5.73478 15 6V10L8.6 5.2C8.45143 5.08857 8.27477 5.02072 8.08981 5.00404C7.90484 4.98736 7.71889 5.02252 7.55279 5.10557C7.38668 5.18863 7.24698 5.31629 7.14935 5.47427C7.05171 5.63225 7 5.81429 7 6V18C7 18.1857 7.05171 18.3678 7.14935 18.5257C7.24698 18.6837 7.38668 18.8114 7.55279 18.8944C7.71889 18.9775 7.90484 19.0126 8.08981 18.996C8.27477 18.9793 8.45143 18.9114 8.6 18.8L15 14V18C15 18.2652 15.1054 18.5196 15.2929 18.7071C15.4804 18.8946 15.7348 19 16 19C16.2652 19 16.5196 18.8946 16.7071 18.7071C16.8946 18.5196 17 18.2652 17 18V6Z" fill="white"/>
</svg>
